<mxfile host="app.diagrams.net" modified="2024-01-18T19:42:58.239Z" agent="Mozilla/5.0 (Windows NT 10.0; Win64; x64) AppleWebKit/537.36 (KHTML, like Gecko) Chrome/120.0.0.0 Safari/537.36" etag="IDh4VwjaeASmuqnSh62U" version="22.1.17" type="device">
  <diagram name="PÃ¡gina-1" id="Y9NyaGc5zIfHL-2cvM5w">
    <mxGraphModel dx="1290" dy="522" grid="1" gridSize="10" guides="1" tooltips="1" connect="1" arrows="1" fold="1" page="1" pageScale="1" pageWidth="827" pageHeight="1169" math="0" shadow="0">
      <root>
        <mxCell id="0" />
        <mxCell id="1" parent="0" />
        <mxCell id="vi5wAXOgIytI57vLBgin-3" value="" style="edgeStyle=orthogonalEdgeStyle;rounded=0;orthogonalLoop=1;jettySize=auto;html=1;" parent="1" source="vi5wAXOgIytI57vLBgin-1" target="vi5wAXOgIytI57vLBgin-2" edge="1">
          <mxGeometry relative="1" as="geometry" />
        </mxCell>
        <mxCell id="vi5wAXOgIytI57vLBgin-1" value="Start" style="ellipse;whiteSpace=wrap;html=1;aspect=fixed;" parent="1" vertex="1">
          <mxGeometry x="264" y="10" width="80" height="80" as="geometry" />
        </mxCell>
        <mxCell id="vi5wAXOgIytI57vLBgin-5" value="" style="edgeStyle=orthogonalEdgeStyle;rounded=0;orthogonalLoop=1;jettySize=auto;html=1;" parent="1" source="vi5wAXOgIytI57vLBgin-6" edge="1">
          <mxGeometry relative="1" as="geometry">
            <mxPoint x="304" y="230" as="targetPoint" />
          </mxGeometry>
        </mxCell>
        <mxCell id="vi5wAXOgIytI57vLBgin-2" value="Logo" style="whiteSpace=wrap;html=1;" parent="1" vertex="1">
          <mxGeometry x="244" y="110" width="120" height="60" as="geometry" />
        </mxCell>
        <mxCell id="vi5wAXOgIytI57vLBgin-7" value="" style="edgeStyle=orthogonalEdgeStyle;rounded=0;orthogonalLoop=1;jettySize=auto;html=1;" parent="1" source="vi5wAXOgIytI57vLBgin-2" target="vi5wAXOgIytI57vLBgin-6" edge="1">
          <mxGeometry relative="1" as="geometry">
            <mxPoint x="304" y="170" as="sourcePoint" />
            <mxPoint x="304" y="230" as="targetPoint" />
          </mxGeometry>
        </mxCell>
        <mxCell id="vi5wAXOgIytI57vLBgin-9" value="" style="edgeStyle=orthogonalEdgeStyle;rounded=0;orthogonalLoop=1;jettySize=auto;html=1;" parent="1" source="vi5wAXOgIytI57vLBgin-6" target="vi5wAXOgIytI57vLBgin-8" edge="1">
          <mxGeometry relative="1" as="geometry" />
        </mxCell>
        <mxCell id="vi5wAXOgIytI57vLBgin-11" value="" style="edgeStyle=orthogonalEdgeStyle;rounded=0;orthogonalLoop=1;jettySize=auto;html=1;" parent="1" source="vi5wAXOgIytI57vLBgin-6" target="vi5wAXOgIytI57vLBgin-10" edge="1">
          <mxGeometry relative="1" as="geometry" />
        </mxCell>
        <mxCell id="vi5wAXOgIytI57vLBgin-6" value="Play?" style="rhombus;whiteSpace=wrap;html=1;" parent="1" vertex="1">
          <mxGeometry x="264" y="200" width="80" height="80" as="geometry" />
        </mxCell>
        <mxCell id="vi5wAXOgIytI57vLBgin-8" value="End" style="ellipse;whiteSpace=wrap;html=1;" parent="1" vertex="1">
          <mxGeometry x="30" y="980" width="80" height="80" as="geometry" />
        </mxCell>
        <mxCell id="vi5wAXOgIytI57vLBgin-13" value="" style="edgeStyle=orthogonalEdgeStyle;rounded=0;orthogonalLoop=1;jettySize=auto;html=1;entryX=0.51;entryY=0.09;entryDx=0;entryDy=0;entryPerimeter=0;" parent="1" source="vi5wAXOgIytI57vLBgin-10" target="vi5wAXOgIytI57vLBgin-14" edge="1">
          <mxGeometry relative="1" as="geometry">
            <mxPoint x="304" y="400" as="targetPoint" />
          </mxGeometry>
        </mxCell>
        <mxCell id="vi5wAXOgIytI57vLBgin-10" value="Deal 2 cards for user and Dealer" style="whiteSpace=wrap;html=1;" parent="1" vertex="1">
          <mxGeometry x="244" y="320" width="120" height="60" as="geometry" />
        </mxCell>
        <mxCell id="vi5wAXOgIytI57vLBgin-18" value="" style="edgeStyle=orthogonalEdgeStyle;rounded=0;orthogonalLoop=1;jettySize=auto;html=1;entryX=0.5;entryY=0;entryDx=0;entryDy=0;" parent="1" source="vi5wAXOgIytI57vLBgin-14" target="vi5wAXOgIytI57vLBgin-22" edge="1">
          <mxGeometry relative="1" as="geometry">
            <mxPoint x="304" y="510" as="targetPoint" />
          </mxGeometry>
        </mxCell>
        <mxCell id="vi5wAXOgIytI57vLBgin-29" value="yes" style="edgeLabel;html=1;align=center;verticalAlign=middle;resizable=0;points=[];" parent="vi5wAXOgIytI57vLBgin-18" vertex="1" connectable="0">
          <mxGeometry x="-0.2774" relative="1" as="geometry">
            <mxPoint as="offset" />
          </mxGeometry>
        </mxCell>
        <mxCell id="vi5wAXOgIytI57vLBgin-34" value="" style="edgeStyle=orthogonalEdgeStyle;rounded=0;orthogonalLoop=1;jettySize=auto;html=1;" parent="1" source="vi5wAXOgIytI57vLBgin-14" target="vi5wAXOgIytI57vLBgin-33" edge="1">
          <mxGeometry relative="1" as="geometry" />
        </mxCell>
        <mxCell id="vi5wAXOgIytI57vLBgin-14" value="show score&lt;br&gt;another?" style="rhombus;whiteSpace=wrap;html=1;" parent="1" vertex="1">
          <mxGeometry x="264" y="400" width="80" height="80" as="geometry" />
        </mxCell>
        <mxCell id="vi5wAXOgIytI57vLBgin-21" value="" style="edgeStyle=orthogonalEdgeStyle;rounded=0;orthogonalLoop=1;jettySize=auto;html=1;" parent="1" source="vi5wAXOgIytI57vLBgin-19" target="vi5wAXOgIytI57vLBgin-20" edge="1">
          <mxGeometry relative="1" as="geometry" />
        </mxCell>
        <mxCell id="vi5wAXOgIytI57vLBgin-36" value="yes" style="edgeLabel;html=1;align=center;verticalAlign=middle;resizable=0;points=[];" parent="vi5wAXOgIytI57vLBgin-21" vertex="1" connectable="0">
          <mxGeometry x="-0.283" relative="1" as="geometry">
            <mxPoint as="offset" />
          </mxGeometry>
        </mxCell>
        <mxCell id="vi5wAXOgIytI57vLBgin-38" value="" style="edgeStyle=orthogonalEdgeStyle;rounded=0;orthogonalLoop=1;jettySize=auto;html=1;" parent="1" source="vi5wAXOgIytI57vLBgin-19" target="vi5wAXOgIytI57vLBgin-37" edge="1">
          <mxGeometry relative="1" as="geometry" />
        </mxCell>
        <mxCell id="vi5wAXOgIytI57vLBgin-19" value="user_score &amp;lt; dealer_score" style="rhombus;whiteSpace=wrap;html=1;" parent="1" vertex="1">
          <mxGeometry x="524" y="385" width="110" height="110" as="geometry" />
        </mxCell>
        <mxCell id="vi5wAXOgIytI57vLBgin-51" style="edgeStyle=orthogonalEdgeStyle;rounded=0;orthogonalLoop=1;jettySize=auto;html=1;exitX=0.5;exitY=1;exitDx=0;exitDy=0;entryX=1;entryY=0.5;entryDx=0;entryDy=0;" parent="1" source="vi5wAXOgIytI57vLBgin-20" target="vi5wAXOgIytI57vLBgin-6" edge="1">
          <mxGeometry relative="1" as="geometry">
            <Array as="points">
              <mxPoint x="579" y="810" />
              <mxPoint x="810" y="810" />
              <mxPoint x="810" y="240" />
            </Array>
          </mxGeometry>
        </mxCell>
        <mxCell id="vi5wAXOgIytI57vLBgin-20" value="User Lose" style="whiteSpace=wrap;html=1;" parent="1" vertex="1">
          <mxGeometry x="519" y="730" width="120" height="60" as="geometry" />
        </mxCell>
        <mxCell id="vi5wAXOgIytI57vLBgin-25" style="edgeStyle=orthogonalEdgeStyle;rounded=0;orthogonalLoop=1;jettySize=auto;html=1;exitX=1;exitY=0.5;exitDx=0;exitDy=0;entryX=0.5;entryY=0;entryDx=0;entryDy=0;" parent="1" source="vi5wAXOgIytI57vLBgin-22" target="vi5wAXOgIytI57vLBgin-20" edge="1">
          <mxGeometry relative="1" as="geometry" />
        </mxCell>
        <mxCell id="vi5wAXOgIytI57vLBgin-31" value="no" style="edgeLabel;html=1;align=center;verticalAlign=middle;resizable=0;points=[];" parent="vi5wAXOgIytI57vLBgin-25" vertex="1" connectable="0">
          <mxGeometry x="-0.3612" relative="1" as="geometry">
            <mxPoint as="offset" />
          </mxGeometry>
        </mxCell>
        <mxCell id="vi5wAXOgIytI57vLBgin-27" style="edgeStyle=orthogonalEdgeStyle;rounded=0;orthogonalLoop=1;jettySize=auto;html=1;exitX=0.5;exitY=1;exitDx=0;exitDy=0;entryX=0;entryY=0.5;entryDx=0;entryDy=0;" parent="1" source="vi5wAXOgIytI57vLBgin-22" target="vi5wAXOgIytI57vLBgin-14" edge="1">
          <mxGeometry relative="1" as="geometry">
            <Array as="points">
              <mxPoint x="304" y="667" />
              <mxPoint x="190" y="667" />
              <mxPoint x="190" y="440" />
            </Array>
          </mxGeometry>
        </mxCell>
        <mxCell id="vi5wAXOgIytI57vLBgin-32" value="yes" style="edgeLabel;html=1;align=center;verticalAlign=middle;resizable=0;points=[];" parent="vi5wAXOgIytI57vLBgin-27" vertex="1" connectable="0">
          <mxGeometry x="-0.5669" y="1" relative="1" as="geometry">
            <mxPoint as="offset" />
          </mxGeometry>
        </mxCell>
        <mxCell id="vi5wAXOgIytI57vLBgin-22" value="Hit+score&amp;lt;21" style="rhombus;whiteSpace=wrap;html=1;" parent="1" vertex="1">
          <mxGeometry x="252" y="542" width="104" height="105" as="geometry" />
        </mxCell>
        <mxCell id="vi5wAXOgIytI57vLBgin-24" style="edgeStyle=orthogonalEdgeStyle;rounded=0;orthogonalLoop=1;jettySize=auto;html=1;exitX=0.5;exitY=1;exitDx=0;exitDy=0;" parent="1" source="vi5wAXOgIytI57vLBgin-20" target="vi5wAXOgIytI57vLBgin-20" edge="1">
          <mxGeometry relative="1" as="geometry" />
        </mxCell>
        <mxCell id="vi5wAXOgIytI57vLBgin-35" value="" style="edgeStyle=orthogonalEdgeStyle;rounded=0;orthogonalLoop=1;jettySize=auto;html=1;" parent="1" source="vi5wAXOgIytI57vLBgin-33" target="vi5wAXOgIytI57vLBgin-19" edge="1">
          <mxGeometry relative="1" as="geometry" />
        </mxCell>
        <mxCell id="vi5wAXOgIytI57vLBgin-33" value="reveal dealer card" style="rounded=1;whiteSpace=wrap;html=1;" parent="1" vertex="1">
          <mxGeometry x="370" y="410" width="120" height="60" as="geometry" />
        </mxCell>
        <mxCell id="vi5wAXOgIytI57vLBgin-40" value="" style="edgeStyle=orthogonalEdgeStyle;rounded=0;orthogonalLoop=1;jettySize=auto;html=1;entryX=0.5;entryY=0;entryDx=0;entryDy=0;exitX=0.5;exitY=0;exitDx=0;exitDy=0;" parent="1" source="vi5wAXOgIytI57vLBgin-37" target="vi5wAXOgIytI57vLBgin-19" edge="1">
          <mxGeometry relative="1" as="geometry">
            <mxPoint x="715" y="520" as="targetPoint" />
            <Array as="points">
              <mxPoint x="730" y="365" />
              <mxPoint x="579" y="365" />
            </Array>
          </mxGeometry>
        </mxCell>
        <mxCell id="vi5wAXOgIytI57vLBgin-41" value="yes" style="edgeLabel;html=1;align=center;verticalAlign=middle;resizable=0;points=[];" parent="vi5wAXOgIytI57vLBgin-40" vertex="1" connectable="0">
          <mxGeometry x="0.4568" y="-1" relative="1" as="geometry">
            <mxPoint as="offset" />
          </mxGeometry>
        </mxCell>
        <mxCell id="vi5wAXOgIytI57vLBgin-43" value="" style="edgeStyle=orthogonalEdgeStyle;rounded=0;orthogonalLoop=1;jettySize=auto;html=1;" parent="1" source="vi5wAXOgIytI57vLBgin-37" target="vi5wAXOgIytI57vLBgin-42" edge="1">
          <mxGeometry relative="1" as="geometry" />
        </mxCell>
        <mxCell id="vi5wAXOgIytI57vLBgin-37" value="Hit Dealer&lt;br&gt;dealer_score=&amp;lt;21" style="rhombus;whiteSpace=wrap;html=1;" parent="1" vertex="1">
          <mxGeometry x="660" y="372.5" width="140" height="135" as="geometry" />
        </mxCell>
        <mxCell id="vi5wAXOgIytI57vLBgin-53" style="edgeStyle=orthogonalEdgeStyle;rounded=0;orthogonalLoop=1;jettySize=auto;html=1;exitX=0.5;exitY=1;exitDx=0;exitDy=0;" parent="1" source="vi5wAXOgIytI57vLBgin-42" edge="1">
          <mxGeometry relative="1" as="geometry">
            <mxPoint x="730" y="810" as="targetPoint" />
          </mxGeometry>
        </mxCell>
        <mxCell id="vi5wAXOgIytI57vLBgin-42" value="You Win" style="whiteSpace=wrap;html=1;" parent="1" vertex="1">
          <mxGeometry x="670" y="730" width="120" height="60" as="geometry" />
        </mxCell>
      </root>
    </mxGraphModel>
  </diagram>
</mxfile>
